<svg xmlns="http://www.w3.org/2000/svg" viewBox="0 0 846 653"><defs><style>.cls-1,.cls-2,.cls-3,.cls-4{fill:none;}.cls-2{stroke:#e8d216;}.cls-2,.cls-3,.cls-4{stroke-miterlimit:10;}.cls-3{stroke:#106222;}.cls-4{stroke:#e1f01f;}</style></defs><g id="Layer_2" data-name="Layer 2"><rect class="cls-1" width="846" height="653"/></g><g id="Layer_3" data-name="Layer 3"><rect class="cls-2" x="48.73" y="395.12" width="57.31" height="60.72"/><polygon class="cls-3" points="148.31 124.85 148.31 54.28 245.03 54.28 245.03 99.78 317.39 99.78 317.39 124.85 148.31 124.85"/><rect class="cls-3" x="618.46" y="425.75" width="20.96" height="84.54"/><polygon class="cls-2" points="474.28 418.58 519.96 418.58 519.96 397.99 552.55 397.99 546.28 367.54 474.28 367.54 474.28 418.58"/><polygon class="cls-2" points="272.07 360.19 272.07 406.76 277.63 429.69 307.9 429.69 307.9 360.19 272.07 360.19"/><polygon class="cls-2" points="236.25 406.58 262.4 406.58 265.99 420.73 236.25 420.73 236.25 406.58"/><polygon class="cls-2" points="236.25 483.24 236.25 497.93 265.99 497.93 271.18 490.58 271.18 483.24 236.25 483.24"/><rect class="cls-2" x="167.48" y="463.36" width="11.46" height="34.57"/><rect class="cls-2" x="144.37" y="144.19" width="25.25" height="77.55"/><polygon class="cls-2" points="238.58 161.57 238.58 176.97 247.36 176.97 247.36 189.33 238.58 189.33 238.58 201.51 260.97 201.51 260.97 160.67 238.58 160.67 238.58 161.57"/><polygon class="cls-2" points="289.99 147.06 406.22 147.06 406.22 207.24 417.15 207.24 417.15 136.87 289.99 136.87 289.99 147.06"/><rect class="cls-3" x="443.84" y="136.87" width="19.88" height="86.01"/><rect class="cls-3" x="509.21" y="98.7" width="8.96" height="12.54"/><rect class="cls-3" x="518.16" y="81.33" width="68.6" height="6.81"/><rect class="cls-3" x="495.6" y="136.87" width="26.51" height="7.33"/><polygon class="cls-2" points="538.4 172.05 519.06 166.13 522.1 154.67 541.82 160.4 538.4 172.05"/><rect class="cls-2" x="543.51" y="136.87" width="20.51" height="17.27"/><rect class="cls-2" x="610.85" y="158.34" width="35.55" height="23.37"/><rect class="cls-3" x="648.73" y="93.87" width="67.61" height="31.43"/><rect class="cls-3" x="774.1" y="86.97" width="11.64" height="24.45"/><polyline class="cls-3" points="742.94 136.87 742.94 182.25 785.03 182.25 785.03 164.61 748.04 164.61 748.04 156.82 763.99 156.82 763.99 150.73 748.94 150.73 748.94 136.87"/><rect class="cls-2" x="180.49" y="165.45" width="17.55" height="52.06"/><rect class="cls-2" x="182.52" y="230.76" width="72.48" height="4.66"/><polygon class="cls-3" points="609.69 403.36 609.69 507.24 475 507.24 475 460.85 558.64 460.85 558.64 403.36 609.69 403.36"/><rect class="cls-3" x="558.46" y="320.25" width="51.22" height="77.37"/><rect class="cls-3" x="552.31" y="202.34" width="57.37" height="113.79"/><path class="cls-4" d="M144.37,136.87"/><path class="cls-4" d="M169.63,136.87"/></g></svg>