<svg xmlns="http://www.w3.org/2000/svg" viewBox="0 0 846 653"><defs><style>.cls-1,.cls-3{fill:none;}.cls-2{opacity:0.51;}.cls-3{stroke:#a3a3a3;stroke-miterlimit:10;}</style></defs><g id="Layer_2" data-name="Layer 2"><rect class="cls-1" width="846" height="653"/></g><g id="Layer_4" data-name="Layer 4" class="cls-2"><polygon class="cls-3" points="21.57 529.27 21.57 18.7 826.82 18.7 826.82 529.27 802.46 529.27 24.73 529.27 21.57 529.27"/><path class="cls-3" d="M44,511.72H226.85v-7.17H106.7V395.18H47.57l-3.58.13C44,434,44,473,44,511.72"/><path class="cls-3" d="M227.53,511.37"/><path class="cls-3" d="M277,494.4"/><path class="cls-3" d="M267.64,505.11"/><path class="cls-3" d="M424.63,511.07"/><path class="cls-3" d="M610.83,511.15C553,511,496,511,437.81,511.06V443.48l.9.19"/><path class="cls-3" d="M794.58,313c.42-5,5.42-5,6.42-9,3-27,3-53,2-79,0-27,1-53,0-80-4,0-4.87-8.15-6.87-8.15-63.76,0-124.92-.63-189-.63v44.87a26.41,26.41,0,0,0,4.12,6.72c2.49,2.93,4.69,4.13,6.09,7.43a12.87,12.87,0,0,1,1,4.12V318.88"/><path class="cls-3" d="M436.05,136.41l83,.46h79v45a34.32,34.32,0,0,0,5.28,10.74,34.7,34.7,0,0,0,6.8,7"/><path class="cls-3" d="M145.87,136.24,44,136s0,169,0,253.19h85.7v6H113.75V498H227.53V458.07l-19.84-5.37,1-3.67,18.86,4.84v-64.3h7.92v-2.51H257l14.69-10.12"/><line class="cls-3" x1="267.46" y1="136.6" x2="180.06" y2="136.25"/><path class="cls-3" d="M423,136.87c-49,.13-99,.13-147.67-.25"/><path class="cls-3" d="M423,136.87v86.49H357.09V231H546V338.34h-24.6v3.94H546a91.89,91.89,0,0,0,0,17c.76,8.25,2.3,12.51,4.41,24.89,1,5.76,1.61,10.47,2,13.44H520.55v5.55h31.82v25.55h-4.71v14.69h5.49v11.7"/><path class="cls-3" d="M436.81,136.87v86h116.1c.17,92.31.13,127.45,0,133.73,0,.34,0,1.34,0,2.69a69.13,69.13,0,0,0,3.22,18.63,70,70,0,0,1,2.33,19.7h51.67v-198"/><path class="cls-3" d="M438.46,443.66a100.88,100.88,0,0,1,11.38,1.16c8,1.29,14.06,3.26,25.43,7.25,18.83,6.62,16.34,6.15,19.25,6.9,8.3,2.14,13.64,2.06,35.82,2,4.69,0,14.64-.06,28.48-.09V403.27h50.87V511.36"/><path class="cls-3" d="M618.37,511.36V403.27l184.69.32C803,440,803,475,803,511c-61,0-123,0-184.49.15"/><path class="cls-3" d="M795.18,318.88H690.1l-24.83,6.33h-46.9v72.42l184.68-.24q0-34.18.07-68.36"/><polyline class="cls-3" points="618.37 319.6 665.27 319.6 690.58 313.03 795.18 313.03"/><path class="cls-3" d="M794.58,313"/><path class="cls-3" d="M803.12,329a13.29,13.29,0,0,1-5.7-4.06,10.8,10.8,0,0,1-2.24-6.09"/><path class="cls-3" d="M803.12,329"/><path class="cls-3" d="M518.07,124.58V87.33H723.78v38H795.9a31.36,31.36,0,0,1,6.56-7.76V25.39H44v99.94H518Z"/><path class="cls-3" d="M796.61,136.85"/><path class="cls-3" d="M144.79,136.17v7.19h25.08V287.24a11.71,11.71,0,0,0-4.66,12.89,11.51,11.51,0,0,0,10.86,8.36c6,0,11.24-5,11.35-10.86a11.57,11.57,0,0,0-6.81-10.39v-56.6H275.3V202.22h7.28v-8.59h-7V136.17"/><polyline class="cls-3" points="266.34 136.17 266.34 222.76 180.61 222.76 180.61 136.1"/><path class="cls-3" d="M271.72,383.12l-10.84,8A106.46,106.46,0,0,1,273.78,437h25.79V430"/><path class="cls-3" d="M235.81,436.49V395.18h20.77a99.26,99.26,0,0,1,11.64,41.31Z"/><path class="cls-3" d="M236.25,498h30.18a10.13,10.13,0,0,0,2.69-2.68,10.29,10.29,0,0,0,1.61-3.94q-1.25-24-2.51-47.91h-32Z"/><path class="cls-3" d="M303.24,430v7H423.73c-3.79-4.14-4.5-10-1.92-14.33,2.85-4.77,8.4-5.4,9-5.46a11.17,11.17,0,0,1,8,19.49,105,105,0,0,1,20.18,2.51c10.48,2.35,14.73,5,26.39,8.83,12.5,4.1,18.79,6.05,27.8,6.82,3.86.33,4.87.15,20.23.14,8.36,0,15.19.05,19.67.09"/><path class="cls-3" d="M423.78,443.66v67.43H236.25v-6h32a17.83,17.83,0,0,0,10.3-15.69q-1.78-23-3.58-45.94Z"/><path class="cls-3" d="M610.13,199.6"/><rect class="cls-3" x="525.33" y="93.06" width="90" height="31.7"/><rect class="cls-3" x="624.64" y="93.87" width="24.27" height="20.33"/></g></svg>