<?xml version="1.0" encoding="utf-8"?>
<!-- Generator: Adobe Illustrator 24.2.1, SVG Export Plug-In . SVG Version: 6.00 Build 0)  -->
<svg version="1.1" id="Layer_1" xmlns="http://www.w3.org/2000/svg" xmlns:xlink="http://www.w3.org/1999/xlink" x="0px" y="0px"
	 viewBox="0 0 846 653" style="enable-background:new 0 0 846 653;" xml:space="preserve">
<style type="text/css">
	.st0{fill:none;}
	.st1{opacity:0.51;}
	.st2{fill:none;stroke:#A3A3A3;stroke-miterlimit:10;}
</style>
<g id="Layer_2_1_">
	<rect class="st0" width="846" height="653"/>
</g>
<g id="Layer_4" class="st1">
	<polygon class="st2" points="21.6,529.3 21.6,18.7 826.8,18.7 826.8,529.3 802.5,529.3 24.7,529.3 	"/>
	<path class="st2" d="M44,511.7h182.9v-7.2H106.7V395.2H47.6l-3.6,0.1C44,434,44,473,44,511.7"/>
	<path class="st2" d="M227.5,511.4"/>
	<path class="st2" d="M277,494.4"/>
	<path class="st2" d="M267.6,505.1"/>
	<path class="st2" d="M424.6,511.1"/>
	<path class="st2" d="M610.8,511.1c-57.8-0.1-114.8-0.1-173-0.1v-67.6l0.9,0.2"/>
	<path class="st2" d="M794.6,313c0.4-5,5.4-5,6.4-9c3-27,3-53,2-79c0-27,1-53,0-80c-4,0-4.9-8.1-6.9-8.1c-63.8,0-124.9-0.6-189-0.6
		v44.9c1,2.4,2.4,4.7,4.1,6.7c2.5,2.9,4.7,4.1,6.1,7.4c0.6,1.3,0.9,2.7,1,4.1v119.5"/>
	<path class="st2" d="M436,136.4l83,0.5h79v45c1.1,3.9,2.9,7.5,5.3,10.7c1.9,2.6,4.2,5,6.8,7"/>
	<path class="st2" d="M145.9,136.2L44,136c0,0,0,169,0,253.2h85.7v6h-15.9V498h113.8v-39.9l-19.8-5.4l1-3.7l18.9,4.8v-64.3h7.9v-2.5
		H257l14.7-10.1"/>
	<line class="st2" x1="267.5" y1="136.6" x2="180.1" y2="136.3"/>
	<path class="st2" d="M423,136.9c-49,0.1-99,0.1-147.7-0.3"/>
	<path class="st2" d="M423,136.9v86.5h-65.9v7.6H546v107.3h-24.6v3.9H546c-0.5,5.7-0.5,11.3,0,17c0.8,8.3,2.3,12.5,4.4,24.9
		c1,5.8,1.6,10.5,2,13.4h-31.9v5.5h31.8v25.5h-4.7v14.7h5.5v11.7"/>
	<path class="st2" d="M436.8,136.9v86h116.1c0.2,92.3,0.1,127.5,0,133.7c0,0.3,0,1.3,0,2.7c0.2,6.3,1.3,12.6,3.2,18.6
		c1.7,6.4,2.5,13.1,2.3,19.7h51.7v-198"/>
	<path class="st2" d="M438.5,443.7c3.8,0.2,7.6,0.6,11.4,1.2c8,1.3,14.1,3.3,25.4,7.3c18.8,6.6,16.3,6.1,19.3,6.9
		c8.3,2.1,13.6,2.1,35.8,2c4.7,0,14.6-0.1,28.5-0.1v-57.6h50.9v108.1"/>
	<path class="st2" d="M618.4,511.4V403.3l184.7,0.3C803,440,803,475,803,511c-61,0-123,0-184.5,0.1"/>
	<path class="st2" d="M795.2,318.9H690.1l-24.8,6.3h-46.9v72.4l184.7-0.2c0-22.8,0-45.6,0.1-68.4"/>
	<polyline class="st2" points="618.4,319.6 665.3,319.6 690.6,313 795.2,313 	"/>
	<path class="st2" d="M794.6,313"/>
	<path class="st2" d="M803.1,329c-2.2-0.8-4.2-2.2-5.7-4.1c-1.4-1.8-2.1-3.9-2.2-6.1"/>
	<path class="st2" d="M803.1,329"/>
	<path class="st2" d="M518.1,124.6V87.3h205.7v38h72.1c1.8-2.9,4-5.5,6.6-7.8V25.4H44v99.9h474L518.1,124.6z"/>
	<path class="st2" d="M796.6,136.9"/>
	<path class="st2" d="M144.8,136.2v7.2h25.1v143.9c-4.2,2.8-6,8-4.7,12.9c1.4,4.9,5.8,8.3,10.9,8.4c6,0,11.2-5,11.4-10.9
		c-0.1-4.5-2.7-8.5-6.8-10.4v-56.6h94.7v-28.4h7.3v-8.6h-7v-57.5"/>
	<polyline class="st2" points="266.3,136.2 266.3,222.8 180.6,222.8 180.6,136.1 	"/>
	<path class="st2" d="M271.7,383.1l-10.8,8c7.7,14.1,12.1,29.8,12.9,45.9h25.8v-7"/>
	<path class="st2" d="M235.8,436.5v-41.3h20.8c6.8,12.8,10.8,26.9,11.6,41.3H235.8z"/>
	<path class="st2" d="M236.3,498h30.2c1.1-0.7,2-1.6,2.7-2.7c0.8-1.2,1.4-2.5,1.6-3.9c-0.8-16-1.7-32-2.5-47.9h-32L236.3,498z"/>
	<path class="st2" d="M303.2,430v7h120.5c-3.8-4.1-4.5-10-1.9-14.3c2.9-4.8,8.4-5.4,9-5.5c6.2-0.3,11.4,4.4,11.7,10.6
		c0.2,3.4-1.2,6.6-3.7,8.9c6.8,0.2,13.6,1,20.2,2.5c10.5,2.4,14.7,5,26.4,8.8c12.5,4.1,18.8,6,27.8,6.8c3.9,0.3,4.9,0.1,20.2,0.1
		c8.4,0,15.2,0,19.7,0.1"/>
	<path class="st2" d="M423.8,443.7v67.4H236.3v-6h32c6.1-2.9,10.1-8.9,10.3-15.7c-1.2-15.3-2.4-30.6-3.6-45.9L423.8,443.7z"/>
	<path class="st2" d="M610.1,199.6"/>
	<rect x="525.3" y="93.1" class="st2" width="90" height="31.7"/>
	<rect x="624.6" y="93.9" class="st2" width="24.3" height="20.3"/>
</g>
</svg>
